#define image_width  8
#define image_height 8
static unsigned char image_bits[] = {
 0x63,0x77,0x3e,0x1c,0x3e,0x77,0x63,0x00
};
